<svg width="24" height="4" viewBox="0 0 24 4" fill="none" xmlns="http://www.w3.org/2000/svg">
<path d="M1.76529 3.93911C1.16885 3.95883 0.693839 4.1064 0.121608 3.85486C0.0162868 3.31745 -0.083637 2.70576 0.109996 2.22655C0.223821 1.94457 0.421052 1.76316 0.61632 1.60927C1.07898 1.24474 1.54622 0.964228 2.06791 0.91431C2.52436 0.870723 2.97802 0.770886 3.43381 0.708793C3.69973 0.672754 3.96843 0.634281 4.23402 0.653274C4.48702 0.670806 8.45504 0.405875 8.58515 0.493536C8.88786 0.459202 9.04999 0.444835 9.30266 0.440939C9.80947 0.433147 10.3189 0.405875 10.8224 0.470647C11.2758 0.5286 11.7265 0.587041 12.1816 0.57584C12.6669 0.564152 13.1526 0.568535 13.6381 0.554168C14.1477 0.539071 14.6573 0.48964 15.1669 0.493536C15.688 0.497675 16.209 0.560256 16.7302 0.573892C16.996 0.581197 17.2625 0.520321 17.5285 0.523243C17.711 0.525678 17.8925 0.599703 18.0753 0.614314C18.2094 0.625028 18.3454 0.593372 18.4803 0.576571C18.5189 0.5717 18.5571 0.537123 18.5948 0.540045C19.2635 0.593372 19.9325 0.639151 20.6004 0.710741C21.3063 0.786227 22.0427 0.638177 22.7356 0.778922C23.1414 0.86147 23.5478 1.13541 23.781 1.63654C23.9465 1.99206 24.0621 2.61591 23.9638 3.04472C23.8511 3.53416 23.538 3.61622 23.2078 3.70486C22.2331 3.96687 21.2991 3.76135 20.3307 3.85948C19.4619 3.94715 18.5854 3.84414 17.7092 3.80372C17.3111 3.78522 16.9121 3.82345 16.5135 3.82077C15.7838 3.81565 15.0539 3.80007 14.3242 3.78765C13.7618 3.77815 13.1992 3.75356 12.6368 3.76013C12.1352 3.76598 11.6339 3.81468 11.1324 3.82612C10.9184 3.83099 10.704 3.78108 10.4898 3.77085C10.0211 3.7482 9.55239 3.73457 9.08351 3.71801C8.80811 3.70802 8.53271 3.68976 8.25747 3.69147C7.74918 3.69463 7.13633 3.93911 6.58705 3.93911C6.03778 3.93911 2.36205 3.91963 1.76529 3.93911Z" fill="#0B4A72"/>
</svg>
